<?xml version="1.0" encoding="UTF-8"?>
<svg width="240px" height="165px" viewBox="0 0 240 165" version="1.1" xmlns="http://www.w3.org/2000/svg" xmlns:xlink="http://www.w3.org/1999/xlink">
    <!-- Generator: Sketch 51.3 (57544) - http://www.bohemiancoding.com/sketch -->
    <title>tipa_logo</title>
    <desc>Created with Sketch.</desc>
    <defs></defs>
    <g id="tipa_logo" stroke="none" stroke-width="1" fill="none" fill-rule="evenodd">
        <g id="tipa" transform="translate(21.000000, 28.000000)" fill="#FFFFFF" fill-rule="nonzero">
            <g id="Group" transform="translate(99.500000, 60.500000) scale(-1, 1) rotate(-180.000000) translate(-99.500000, -60.500000) ">
                <path d="M2.25009582,120.317772 C0.495783825,119.225393 0,117.859919 0,114.192645 L0,110.83748 L11.6318513,110.83748 L23.2637026,110.83748 L23.2637026,79.431577 L23.2637026,48.0256735 L26.2384055,48.0256735 C29.5182062,48.0256735 31.0818321,48.6889038 32.3022231,50.639581 C32.9505558,51.6539332 32.988693,53.4095427 32.988693,81.2652136 L32.988693,110.83748 L42.7136834,110.83748 C51.408969,110.83748 52.5912227,110.915508 53.7353392,111.539724 C55.7184745,112.632104 56.4430816,114.3487 56.4430816,117.937946 L56.4430816,120.981002 L29.8614412,120.981002 C5.91126869,120.941989 3.12725182,120.902975 2.25009582,120.317772 Z" id="Shape"></path>
                <path d="M68.0367957,120.590867 C67.6172863,120.434812 66.7782675,119.732569 66.2443465,119.030325 L65.2146416,117.781891 L65.2146416,82.8647689 L65.2146416,47.9476464 L68.4181679,48.0646871 C71.8886547,48.2207412 73.2997317,48.8839715 74.2531621,50.7956352 C74.6345343,51.5368925 74.748946,59.6517098 74.748946,86.375988 L74.748946,120.981002 L71.8123802,120.941989 C70.1724799,120.941989 68.4944423,120.785934 68.0367957,120.590867 Z" id="Shape"></path>
                <path d="M85.8850134,120.200731 C83.4060943,118.640189 83.5205059,120.200731 83.5205059,82.3575929 L83.5205059,48.0256735 L86.3807972,48.0256735 C89.851284,48.0256735 91.6437332,48.6889038 92.6734381,50.4445133 C93.4361824,51.6929467 93.4361824,52.3171634 93.4361824,81.3042271 L93.4361824,110.876494 L105.94519,110.759453 L118.41606,110.642413 L120.589881,109.550034 C124.060368,107.794424 125.509582,104.985449 125.623994,99.913688 C125.662131,97.2997805 125.509582,96.6365502 124.403603,94.4127782 C123.0688,91.6038029 121.581449,90.2383289 118.644883,89.1849632 C117.348218,88.7168006 115.136259,88.59976 108.27156,88.59976 L99.5381372,88.59976 L99.5381372,85.0495274 L99.5381372,81.4992949 L101.025489,79.9777666 L102.51284,78.4562384 L109.568225,78.4562384 C117.844002,78.4562384 120.894979,78.9634145 125.013798,81.0311323 C130.505558,83.7620805 134.624377,88.9898954 135.806631,94.7248865 C136.493101,98.1580785 136.073591,104.985449 135.005749,107.911465 C133.2133,112.710131 130.314872,116.026282 125.890954,118.289068 C121.238214,120.668894 120.666156,120.746921 103.161173,120.863961 C87.563051,121.020016 87.1054044,120.981002 85.8850134,120.200731 Z" id="Shape"></path>
                <path d="M159.222882,120.239745 C157.46857,119.147365 156.896512,118.328081 154.989651,114.114618 C154.036221,112.007887 152.205634,108.067519 150.985243,105.414598 C149.726715,102.761677 148.735148,100.537905 148.735148,100.498891 C148.735148,100.420864 147.514757,97.767943 146.027405,94.5688323 C144.540054,91.4087352 142.823879,87.741462 142.251821,86.454015 C141.679762,85.1665681 140.459371,82.5526606 139.582215,80.6019833 C138.705059,78.6903197 137.408394,75.8813444 136.721924,74.3598162 C136.035454,72.8773015 134.433691,69.3660825 133.137026,66.5961208 C131.84036,63.8651727 130.810655,61.52436 130.810655,61.4463329 C130.810655,61.3683058 129.437716,58.4032764 127.759678,54.8140303 C126.08164,51.2637977 124.708701,48.2597548 124.708701,48.1817277 C124.708701,48.1037006 126.424875,48.0256735 128.522422,48.0256735 C134.58624,48.0256735 135.425259,48.6108767 138.361824,55.0481116 C139.391529,57.3108972 141.412802,61.6023871 142.823879,64.60643 C144.234956,67.610473 145.874856,71.121692 146.446915,72.409139 C147.018973,73.6965859 148.887696,77.714981 150.603871,81.3432407 C152.281909,84.9324868 153.692986,87.9365297 153.692986,88.0145568 C153.692986,88.0535704 154.951514,90.8235321 156.51514,94.1006698 C158.040629,97.4168211 159.871215,101.318176 160.557685,102.839704 L161.816213,105.531638 L162.884055,103.229839 C165.439249,97.6509024 168.642775,90.745505 171.04542,85.6737442 C172.456497,82.6697012 174.096397,79.1194686 174.668455,77.7930081 L175.774435,75.3741684 L167.994442,75.2571277 C160.90092,75.1400871 160.138176,75.06206 159.146608,74.3598162 C158.15504,73.6185588 154.493867,66.8302021 154.45573,65.6988093 C154.45573,65.3086738 157.316021,65.1916332 167.536796,65.1916332 L180.655998,65.1916332 L182.867957,60.4319807 C188.969912,47.2063891 189.54197,45.4507796 189.54197,39.1695989 C189.54197,27.3484948 183.440015,17.4390545 172.990418,12.5233478 C169.176696,10.7287248 167.117286,10.2215487 161.930625,9.83141326 C158.15504,9.55831845 157.773668,9.44127782 156.667689,8.38791211 C155.637984,7.37355995 152.548869,1.44350115 152.548869,0.429148992 C152.548869,-0.195067723 163.723074,-0.0390135447 167.269835,0.58520317 C170.854734,1.24843343 175.393062,2.73094813 178.215217,4.17444928 C187.978344,9.20719655 195.56765,19.0386098 198.160981,29.9233888 C199.076274,33.9417839 199.266961,41.2373167 198.542353,45.4897931 C197.588923,51.1077436 197.131276,52.356177 191.067459,65.3867009 C189.961479,67.7665271 188.664814,70.5755024 188.207167,71.6288681 C187.749521,72.7212473 186.490993,75.4131819 185.423151,77.6759675 C180.922959,87.3513266 179.244921,91.0576133 179.244921,91.174654 C179.244921,91.2136675 177.986393,93.9836292 176.460905,97.2607669 C174.935416,100.537905 173.066692,104.5563 172.342085,106.155855 C168.452089,114.855876 166.087581,119.225393 164.790916,120.122704 C163.189153,121.17607 160.786508,121.254097 159.222882,120.239745 Z" id="Shape"></path>
            </g>
        </g>
        <path d="M29.993,122.453 L30.299,123.626 C29.755,123.898 28.667,124.17 27.273,124.17 C24.043,124.17 21.612,122.13 21.612,118.373 C21.612,114.786 24.043,112.355 27.596,112.355 C29.024,112.355 29.925,112.661 30.316,112.865 L29.959,114.072 C29.398,113.8 28.599,113.596 27.647,113.596 C24.961,113.596 23.176,115.313 23.176,118.322 C23.176,121.127 24.791,122.929 27.579,122.929 C28.48,122.929 29.398,122.742 29.993,122.453 Z M35.099,115.585 C37.462,115.585 39.06,117.302 39.06,119.818 C39.06,122.861 36.952,124.187 34.963,124.187 C32.736,124.187 31.019,122.555 31.019,119.954 C31.019,117.2 32.821,115.585 35.099,115.585 Z M35.065,116.707 C33.297,116.707 32.532,118.339 32.532,119.903 C32.532,121.705 33.569,123.065 35.031,123.065 C36.459,123.065 37.53,121.722 37.53,119.869 C37.53,118.475 36.833,116.707 35.065,116.707 Z M40.647,124 L40.647,117.999 C40.647,117.149 40.63,116.452 40.579,115.772 L41.888,115.772 L41.956,117.098 L42.007,117.098 C42.466,116.316 43.231,115.585 44.591,115.585 C45.713,115.585 46.563,116.265 46.92,117.234 L46.954,117.234 C47.209,116.775 47.532,116.418 47.872,116.163 C48.365,115.789 48.909,115.585 49.691,115.585 C50.779,115.585 52.394,116.299 52.394,119.155 L52.394,124 L50.932,124 L50.932,119.342 C50.932,117.761 50.354,116.809 49.147,116.809 C48.297,116.809 47.634,117.438 47.379,118.169 C47.311,118.373 47.26,118.645 47.26,118.917 L47.26,124 L45.798,124 L45.798,119.07 C45.798,117.761 45.22,116.809 44.081,116.809 C43.146,116.809 42.466,117.557 42.228,118.305 C42.143,118.526 42.109,118.781 42.109,119.036 L42.109,124 L40.647,124 Z M54.525,127.366 L54.525,118.458 C54.525,117.404 54.491,116.554 54.457,115.772 L55.8,115.772 L55.868,117.183 L55.902,117.183 C56.514,116.18 57.483,115.585 58.826,115.585 C60.815,115.585 62.311,117.268 62.311,119.767 C62.311,122.725 60.509,124.187 58.571,124.187 C57.483,124.187 56.531,123.711 56.038,122.895 L56.004,122.895 L56.004,127.366 L54.525,127.366 Z M56.004,119.24 L56.004,120.651 C56.004,120.872 56.038,121.076 56.072,121.263 C56.344,122.3 57.245,123.014 58.316,123.014 C59.897,123.014 60.815,121.722 60.815,119.835 C60.815,118.186 59.948,116.775 58.367,116.775 C57.347,116.775 56.395,117.506 56.106,118.628 C56.055,118.815 56.004,119.036 56.004,119.24 Z M67.383,115.585 C69.746,115.585 71.344,117.302 71.344,119.818 C71.344,122.861 69.236,124.187 67.247,124.187 C65.02,124.187 63.303,122.555 63.303,119.954 C63.303,117.2 65.105,115.585 67.383,115.585 Z M67.349,116.707 C65.581,116.707 64.816,118.339 64.816,119.903 C64.816,121.705 65.853,123.065 67.315,123.065 C68.743,123.065 69.814,121.722 69.814,119.869 C69.814,118.475 69.117,116.707 67.349,116.707 Z M72.3529999,123.609 L72.7269999,122.47 C73.1689999,122.759 73.9509999,123.065 74.6989999,123.065 C75.7869999,123.065 76.2969999,122.521 76.2969999,121.841 C76.2969999,121.127 75.8719999,120.736 74.7669999,120.328 C73.2879999,119.801 72.5909999,118.985 72.5909999,117.999 C72.5909999,116.673 73.6619999,115.585 75.4299999,115.585 C76.2629999,115.585 76.9939999,115.823 77.4529999,116.095 L77.0789999,117.183 C76.7559999,116.979 76.1609999,116.707 75.3959999,116.707 C74.5119999,116.707 74.0189999,117.217 74.0189999,117.829 C74.0189999,118.509 74.5119999,118.815 75.5829999,119.223 C77.0109999,119.767 77.7419999,120.481 77.7419999,121.705 C77.7419999,123.15 76.6199999,124.17 74.6649999,124.17 C73.7639999,124.17 72.9309999,123.949 72.3529999,123.609 Z M79.7029999,113.8 L81.1649999,113.409 L81.1649999,115.772 L83.3069999,115.772 L83.3069999,116.911 L81.1649999,116.911 L81.1649999,121.348 C81.1649999,122.368 81.4539999,122.946 82.2869999,122.946 C82.6779999,122.946 82.9669999,122.895 83.1539999,122.844 L83.2219999,123.966 C82.9329999,124.085 82.4739999,124.17 81.8959999,124.17 C81.1989999,124.17 80.6379999,123.949 80.2809999,123.541 C79.8559999,123.099 79.7029999,122.368 79.7029999,121.399 L79.7029999,116.911 L78.4279999,116.911 L78.4279999,115.772 L79.7029999,115.772 L79.7029999,113.8 Z M90.6059999,124 L89.2459999,124 L89.1269999,122.963 L89.0759999,122.963 C88.6169999,123.609 87.7329999,124.187 86.5599999,124.187 C84.8939999,124.187 84.0439999,123.014 84.0439999,121.824 C84.0439999,119.835 85.8119999,118.747 88.9909999,118.764 L88.9909999,118.594 C88.9909999,117.914 88.8039999,116.69 87.1209999,116.69 C86.3559999,116.69 85.5569999,116.928 84.9789999,117.302 L84.6389999,116.316 C85.3189999,115.874 86.3049999,115.585 87.3419999,115.585 C89.8579999,115.585 90.4699999,117.302 90.4699999,118.951 L90.4699999,122.028 C90.4699999,122.742 90.5039999,123.439 90.6059999,124 Z M89.0249999,121.229 L89.0249999,119.801 C87.3929999,119.767 85.5399999,120.056 85.5399999,121.654 C85.5399999,122.623 86.1859999,123.082 86.9509999,123.082 C88.0219999,123.082 88.7019999,122.402 88.9399999,121.705 C88.9909999,121.552 89.0249999,121.382 89.0249999,121.229 Z M93.8079999,124 L92.5159999,124 C92.5499999,123.439 92.5839999,122.606 92.5839999,121.875 L92.5839999,111.93 L94.0629999,111.93 L94.0629999,117.098 L94.0969999,117.098 C94.6239999,116.18 95.5759999,115.585 96.9019999,115.585 C98.9419999,115.585 100.387,117.285 100.37,119.784 C100.37,122.725 98.5169999,124.187 96.6809999,124.187 C95.4909999,124.187 94.5389999,123.728 93.9269999,122.64 L93.8759999,122.64 L93.8079999,124 Z M94.0629999,119.223 L94.0629999,120.702 C94.0629999,120.889 94.0969999,121.076 94.1309999,121.246 C94.4199999,122.283 95.2869999,122.997 96.3749999,122.997 C97.9389999,122.997 98.8739999,121.722 98.8739999,119.835 C98.8739999,118.186 98.0239999,116.775 96.4259999,116.775 C95.4059999,116.775 94.4539999,117.472 94.1479999,118.611 C94.1139999,118.781 94.0629999,118.985 94.0629999,119.223 Z M101.957,124 L101.957,111.93 L103.453,111.93 L103.453,124 L101.957,124 Z M112.282,120.158 L106.502,120.158 C106.536,122.181 107.828,123.014 109.324,123.014 C110.395,123.014 111.041,122.827 111.602,122.589 L111.857,123.66 C111.33,123.898 110.429,124.17 109.12,124.17 C106.587,124.17 105.074,122.504 105.074,120.022 C105.074,117.54 106.536,115.585 108.933,115.585 C111.619,115.585 112.333,117.948 112.333,119.461 C112.333,119.767 112.299,120.005 112.282,120.158 Z M106.519,119.087 L110.888,119.087 C110.905,118.135 110.497,116.656 108.814,116.656 C107.301,116.656 106.638,118.05 106.519,119.087 Z M117.241,124 L117.241,112.678 C117.955,112.559 118.89,112.457 120.08,112.457 C121.542,112.457 122.613,112.797 123.293,113.409 C123.922,113.953 124.296,114.786 124.296,115.806 C124.296,116.843 123.99,117.659 123.412,118.254 C122.63,119.087 121.355,119.512 119.91,119.512 C119.468,119.512 119.06,119.495 118.72,119.41 L118.72,124 L117.241,124 Z M118.72,113.749 L118.72,118.203 C119.043,118.288 119.451,118.322 119.944,118.322 C121.729,118.322 122.817,117.455 122.817,115.874 C122.817,114.361 121.746,113.63 120.114,113.63 C119.468,113.63 118.975,113.681 118.72,113.749 Z M131.408,124 L130.048,124 L129.929,122.963 L129.878,122.963 C129.419,123.609 128.535,124.187 127.362,124.187 C125.696,124.187 124.846,123.014 124.846,121.824 C124.846,119.835 126.614,118.747 129.793,118.764 L129.793,118.594 C129.793,117.914 129.606,116.69 127.923,116.69 C127.158,116.69 126.359,116.928 125.781,117.302 L125.441,116.316 C126.121,115.874 127.107,115.585 128.144,115.585 C130.66,115.585 131.272,117.302 131.272,118.951 L131.272,122.028 C131.272,122.742 131.306,123.439 131.408,124 Z M129.827,121.229 L129.827,119.801 C128.195,119.767 126.342,120.056 126.342,121.654 C126.342,122.623 126.988,123.082 127.753,123.082 C128.824,123.082 129.504,122.402 129.742,121.705 C129.793,121.552 129.827,121.382 129.827,121.229 Z M138.996,122.572 L139.251,123.694 C138.86,123.898 137.993,124.17 136.888,124.17 C134.406,124.17 132.791,122.487 132.791,119.971 C132.791,117.438 134.525,115.602 137.211,115.602 C138.095,115.602 138.877,115.823 139.285,116.027 L138.945,117.183 C138.588,116.979 138.027,116.792 137.211,116.792 C135.324,116.792 134.304,118.186 134.304,119.903 C134.304,121.807 135.528,122.98 137.16,122.98 C138.01,122.98 138.571,122.759 138.996,122.572 Z M142.181,111.93 L142.181,119.546 L142.215,119.546 C142.419,119.257 142.708,118.9 142.946,118.611 L145.36,115.772 L147.162,115.772 L143.983,119.155 L147.604,124 L145.785,124 L142.946,120.056 L142.181,120.906 L142.181,124 L140.702,124 L140.702,111.93 L142.181,111.93 Z M154.597,124 L153.237,124 L153.118,122.963 L153.067,122.963 C152.608,123.609 151.724,124.187 150.551,124.187 C148.885,124.187 148.035,123.014 148.035,121.824 C148.035,119.835 149.803,118.747 152.982,118.764 L152.982,118.594 C152.982,117.914 152.795,116.69 151.112,116.69 C150.347,116.69 149.548,116.928 148.97,117.302 L148.63,116.316 C149.31,115.874 150.296,115.585 151.333,115.585 C153.849,115.585 154.461,117.302 154.461,118.951 L154.461,122.028 C154.461,122.742 154.495,123.439 154.597,124 Z M153.016,121.229 L153.016,119.801 C151.384,119.767 149.531,120.056 149.531,121.654 C149.531,122.623 150.177,123.082 150.942,123.082 C152.013,123.082 152.693,122.402 152.931,121.705 C152.982,121.552 153.016,121.382 153.016,121.229 Z M162.355,115.772 L163.664,115.772 C163.63,116.367 163.596,117.03 163.596,118.033 L163.596,122.81 C163.596,124.697 163.222,125.853 162.423,126.567 C161.624,127.315 160.468,127.553 159.431,127.553 C158.445,127.553 157.357,127.315 156.694,126.873 L157.068,125.734 C157.612,126.074 158.462,126.38 159.482,126.38 C161.012,126.38 162.134,125.581 162.134,123.507 L162.134,122.589 L162.1,122.589 C161.641,123.354 160.757,123.966 159.482,123.966 C157.442,123.966 155.98,122.232 155.98,119.954 C155.98,117.166 157.799,115.585 159.686,115.585 C161.114,115.585 161.896,116.333 162.253,117.013 L162.287,117.013 L162.355,115.772 Z M162.117,120.498 L162.117,119.019 C162.117,118.764 162.1,118.543 162.032,118.339 C161.76,117.472 161.029,116.758 159.941,116.758 C158.513,116.758 157.493,117.965 157.493,119.869 C157.493,121.484 158.309,122.827 159.924,122.827 C160.842,122.827 161.675,122.249 161.998,121.297 C162.083,121.042 162.117,120.753 162.117,120.498 Z M167.172,124 L165.676,124 L165.676,115.772 L167.172,115.772 L167.172,124 Z M166.424,112.525 C166.985,112.525 167.342,112.933 167.342,113.46 C167.359,113.97 166.985,114.378 166.39,114.378 C165.863,114.378 165.489,113.97 165.489,113.46 C165.489,112.933 165.88,112.525 166.424,112.525 Z M169.354,124 L169.354,117.999 C169.354,117.149 169.337,116.452 169.286,115.772 L170.612,115.772 L170.697,117.132 L170.731,117.132 C171.139,116.35 172.091,115.585 173.451,115.585 C174.59,115.585 176.358,116.265 176.358,119.087 L176.358,124 L174.862,124 L174.862,119.257 C174.862,117.931 174.369,116.826 172.958,116.826 C171.972,116.826 171.207,117.523 170.952,118.356 C170.884,118.543 170.85,118.798 170.85,119.053 L170.85,124 L169.354,124 Z M184.269,115.772 L185.578,115.772 C185.544,116.367 185.51,117.03 185.51,118.033 L185.51,122.81 C185.51,124.697 185.136,125.853 184.337,126.567 C183.538,127.315 182.382,127.553 181.345,127.553 C180.359,127.553 179.271,127.315 178.608,126.873 L178.982,125.734 C179.526,126.074 180.376,126.38 181.396,126.38 C182.926,126.38 184.048,125.581 184.048,123.507 L184.048,122.589 L184.014,122.589 C183.555,123.354 182.671,123.966 181.396,123.966 C179.356,123.966 177.894,122.232 177.894,119.954 C177.894,117.166 179.713,115.585 181.6,115.585 C183.028,115.585 183.81,116.333 184.167,117.013 L184.201,117.013 L184.269,115.772 Z M184.031,120.498 L184.031,119.019 C184.031,118.764 184.014,118.543 183.946,118.339 C183.674,117.472 182.943,116.758 181.855,116.758 C180.427,116.758 179.407,117.965 179.407,119.869 C179.407,121.484 180.223,122.827 181.838,122.827 C182.756,122.827 183.589,122.249 183.912,121.297 C183.997,121.042 184.031,120.753 184.031,120.498 Z" id="Compostable-Packagin" fill="#FFFFFF"></path>
        <path d="M206.91789,31.9013412 L206.91789,35.0942136 L205.07957,35.0942136 L205.07957,27.1604095 C205.805223,27.0152789 206.821136,26.9185252 208.127312,26.9185252 C209.626994,26.9185252 210.30427,27.1604095 210.884792,27.4990475 C211.320184,27.8376855 211.658822,28.4665846 211.658822,29.2406142 C211.658822,30.1113976 210.981546,30.7886736 210.014009,31.0789347 L210.014009,31.1756884 C210.788039,31.4659496 211.22343,32.0464718 211.465315,33.1107626 C211.707199,34.320184 211.852329,34.8039525 212.045837,35.0942136 L210.062386,35.0942136 C209.820501,34.8039525 209.675371,34.0782997 209.433487,33.1591395 C209.288356,32.2883561 208.804588,31.9013412 207.788674,31.9013412 L206.91789,31.9013412 Z M206.966267,28.321454 L206.966267,30.5951662 L207.83705,30.5951662 C208.852964,30.5951662 209.675371,30.2565282 209.675371,29.4341217 C209.675371,28.7084688 209.143226,28.2247003 207.982181,28.2247003 C207.498412,28.2247003 207.159774,28.2730772 206.966267,28.321454 Z M208.175688,23 C212.77149,23 216.303,26.5315104 216.303,30.9338042 C216.303,35.4328516 212.77149,38.964362 208.175688,38.964362 C203.628264,38.964362 200,35.4328516 200,30.9338042 C200,26.5315104 203.628264,23 208.175688,23 Z M208.175688,24.5964362 C204.644178,24.5964362 202.031828,27.4506706 202.031828,30.9338042 C202.031828,34.4653145 204.644178,37.2711721 208.224065,37.2711721 C211.707199,37.2711721 214.271172,34.4653145 214.271172,30.982181 C214.271172,27.4506706 211.707199,24.5964362 208.175688,24.5964362 Z" id="®" fill="#FFFFFF"></path>
    </g>
</svg>